<svg xmlns="http://www.w3.org/2000/svg" width="24" height="24" fill="none" viewBox="0 0 24 24"><path fill="url(#paint0_linear_1_36786)" d="M4.97461 17.2793C6.3208 17.2793 7.41211 16.188 7.41211 14.8418C7.41211 13.4956 6.3208 12.4043 4.97461 12.4043C3.62842 12.4043 2.53711 13.4956 2.53711 14.8418C2.53711 16.188 3.62842 17.2793 4.97461 17.2793Z"/><path fill="url(#paint1_radial_1_36786)" d="M4.97461 17.2793C6.3208 17.2793 7.41211 16.188 7.41211 14.8418C7.41211 13.4956 6.3208 12.4043 4.97461 12.4043C3.62842 12.4043 2.53711 13.4956 2.53711 14.8418C2.53711 16.188 3.62842 17.2793 4.97461 17.2793Z"/><g filter="url(#filter0_f_1_36786)"><path fill="url(#paint2_radial_1_36786)" d="M4.97457 16.3565C5.81114 16.3565 6.48931 15.6783 6.48931 14.8418C6.48931 14.0052 5.81114 13.327 4.97457 13.327C4.13801 13.327 3.45984 14.0052 3.45984 14.8418C3.45984 15.6783 4.13801 16.3565 4.97457 16.3565Z"/></g><path fill="url(#paint3_linear_1_36786)" d="M19.2246 17.2793C20.5708 17.2793 21.6621 16.188 21.6621 14.8418C21.6621 13.4956 20.5708 12.4043 19.2246 12.4043C17.8784 12.4043 16.7871 13.4956 16.7871 14.8418C16.7871 16.188 17.8784 17.2793 19.2246 17.2793Z"/><path fill="url(#paint4_radial_1_36786)" d="M19.2246 17.2793C20.5708 17.2793 21.6621 16.188 21.6621 14.8418C21.6621 13.4956 20.5708 12.4043 19.2246 12.4043C17.8784 12.4043 16.7871 13.4956 16.7871 14.8418C16.7871 16.188 17.8784 17.2793 19.2246 17.2793Z"/><path fill="url(#paint5_radial_1_36786)" d="M19.2246 17.2793C20.5708 17.2793 21.6621 16.188 21.6621 14.8418C21.6621 13.4956 20.5708 12.4043 19.2246 12.4043C17.8784 12.4043 16.7871 13.4956 16.7871 14.8418C16.7871 16.188 17.8784 17.2793 19.2246 17.2793Z"/><path fill="url(#paint6_radial_1_36786)" d="M19.2246 17.2793C20.5708 17.2793 21.6621 16.188 21.6621 14.8418C21.6621 13.4956 20.5708 12.4043 19.2246 12.4043C17.8784 12.4043 16.7871 13.4956 16.7871 14.8418C16.7871 16.188 17.8784 17.2793 19.2246 17.2793Z"/><g filter="url(#filter1_f_1_36786)"><path fill="url(#paint7_radial_1_36786)" d="M19.2246 16.4029C20.0868 16.4029 20.7857 15.704 20.7857 14.8418C20.7857 13.9796 20.0868 13.2807 19.2246 13.2807C18.3624 13.2807 17.6635 13.9796 17.6635 14.8418C17.6635 15.704 18.3624 16.4029 19.2246 16.4029Z"/></g><g filter="url(#filter2_ii_1_36786)"><path fill="url(#paint8_linear_1_36786)" d="M17.5215 4.31333C16.3582 3.44325 14.9654 2.9707 13.5419 2.9707H10.6873C9.26388 2.9707 7.87104 3.44325 6.70778 4.31333C4.72565 5.80598 3.65423 8.28871 3.89913 10.8315L4.57259 16.9145C4.79453 19.2698 6.35574 21.25 8.52154 21.925C10.8634 22.6526 13.3659 22.6526 15.7077 21.925C17.8735 21.25 19.4347 19.2698 19.6567 16.9145L20.3301 10.8315C20.575 8.28871 19.5036 5.80598 17.5215 4.31333Z"/><path fill="url(#paint9_linear_1_36786)" d="M17.5215 4.31333C16.3582 3.44325 14.9654 2.9707 13.5419 2.9707H10.6873C9.26388 2.9707 7.87104 3.44325 6.70778 4.31333C4.72565 5.80598 3.65423 8.28871 3.89913 10.8315L4.57259 16.9145C4.79453 19.2698 6.35574 21.25 8.52154 21.925C10.8634 22.6526 13.3659 22.6526 15.7077 21.925C17.8735 21.25 19.4347 19.2698 19.6567 16.9145L20.3301 10.8315C20.575 8.28871 19.5036 5.80598 17.5215 4.31333Z"/><path fill="url(#paint10_linear_1_36786)" d="M17.5215 4.31333C16.3582 3.44325 14.9654 2.9707 13.5419 2.9707H10.6873C9.26388 2.9707 7.87104 3.44325 6.70778 4.31333C4.72565 5.80598 3.65423 8.28871 3.89913 10.8315L4.57259 16.9145C4.79453 19.2698 6.35574 21.25 8.52154 21.925C10.8634 22.6526 13.3659 22.6526 15.7077 21.925C17.8735 21.25 19.4347 19.2698 19.6567 16.9145L20.3301 10.8315C20.575 8.28871 19.5036 5.80598 17.5215 4.31333Z"/><path fill="url(#paint11_radial_1_36786)" d="M17.5215 4.31333C16.3582 3.44325 14.9654 2.9707 13.5419 2.9707H10.6873C9.26388 2.9707 7.87104 3.44325 6.70778 4.31333C4.72565 5.80598 3.65423 8.28871 3.89913 10.8315L4.57259 16.9145C4.79453 19.2698 6.35574 21.25 8.52154 21.925C10.8634 22.6526 13.3659 22.6526 15.7077 21.925C17.8735 21.25 19.4347 19.2698 19.6567 16.9145L20.3301 10.8315C20.575 8.28871 19.5036 5.80598 17.5215 4.31333Z"/><path fill="url(#paint12_radial_1_36786)" d="M17.5215 4.31333C16.3582 3.44325 14.9654 2.9707 13.5419 2.9707H10.6873C9.26388 2.9707 7.87104 3.44325 6.70778 4.31333C4.72565 5.80598 3.65423 8.28871 3.89913 10.8315L4.57259 16.9145C4.79453 19.2698 6.35574 21.25 8.52154 21.925C10.8634 22.6526 13.3659 22.6526 15.7077 21.925C17.8735 21.25 19.4347 19.2698 19.6567 16.9145L20.3301 10.8315C20.575 8.28871 19.5036 5.80598 17.5215 4.31333Z"/><path fill="url(#paint13_radial_1_36786)" d="M17.5215 4.31333C16.3582 3.44325 14.9654 2.9707 13.5419 2.9707H10.6873C9.26388 2.9707 7.87104 3.44325 6.70778 4.31333C4.72565 5.80598 3.65423 8.28871 3.89913 10.8315L4.57259 16.9145C4.79453 19.2698 6.35574 21.25 8.52154 21.925C10.8634 22.6526 13.3659 22.6526 15.7077 21.925C17.8735 21.25 19.4347 19.2698 19.6567 16.9145L20.3301 10.8315C20.575 8.28871 19.5036 5.80598 17.5215 4.31333Z"/><path fill="url(#paint14_radial_1_36786)" d="M17.5215 4.31333C16.3582 3.44325 14.9654 2.9707 13.5419 2.9707H10.6873C9.26388 2.9707 7.87104 3.44325 6.70778 4.31333C4.72565 5.80598 3.65423 8.28871 3.89913 10.8315L4.57259 16.9145C4.79453 19.2698 6.35574 21.25 8.52154 21.925C10.8634 22.6526 13.3659 22.6526 15.7077 21.925C17.8735 21.25 19.4347 19.2698 19.6567 16.9145L20.3301 10.8315C20.575 8.28871 19.5036 5.80598 17.5215 4.31333Z"/><path fill="url(#paint15_radial_1_36786)" d="M17.5215 4.31333C16.3582 3.44325 14.9654 2.9707 13.5419 2.9707H10.6873C9.26388 2.9707 7.87104 3.44325 6.70778 4.31333C4.72565 5.80598 3.65423 8.28871 3.89913 10.8315L4.57259 16.9145C4.79453 19.2698 6.35574 21.25 8.52154 21.925C10.8634 22.6526 13.3659 22.6526 15.7077 21.925C17.8735 21.25 19.4347 19.2698 19.6567 16.9145L20.3301 10.8315C20.575 8.28871 19.5036 5.80598 17.5215 4.31333Z"/><path fill="url(#paint16_radial_1_36786)" d="M17.5215 4.31333C16.3582 3.44325 14.9654 2.9707 13.5419 2.9707H10.6873C9.26388 2.9707 7.87104 3.44325 6.70778 4.31333C4.72565 5.80598 3.65423 8.28871 3.89913 10.8315L4.57259 16.9145C4.79453 19.2698 6.35574 21.25 8.52154 21.925C10.8634 22.6526 13.3659 22.6526 15.7077 21.925C17.8735 21.25 19.4347 19.2698 19.6567 16.9145L20.3301 10.8315C20.575 8.28871 19.5036 5.80598 17.5215 4.31333Z"/></g><path fill="url(#paint17_linear_1_36786)" d="M17.5215 4.31333C16.3582 3.44325 14.9654 2.9707 13.5419 2.9707H10.6873C9.26388 2.9707 7.87104 3.44325 6.70778 4.31333C4.72565 5.80598 3.65423 8.28871 3.89913 10.8315L4.57259 16.9145C4.79453 19.2698 6.35574 21.25 8.52154 21.925C10.8634 22.6526 13.3659 22.6526 15.7077 21.925C17.8735 21.25 19.4347 19.2698 19.6567 16.9145L20.3301 10.8315C20.575 8.28871 19.5036 5.80598 17.5215 4.31333Z"/><path fill="url(#paint18_radial_1_36786)" d="M17.5215 4.31333C16.3582 3.44325 14.9654 2.9707 13.5419 2.9707H10.6873C9.26388 2.9707 7.87104 3.44325 6.70778 4.31333C4.72565 5.80598 3.65423 8.28871 3.89913 10.8315L4.57259 16.9145C4.79453 19.2698 6.35574 21.25 8.52154 21.925C10.8634 22.6526 13.3659 22.6526 15.7077 21.925C17.8735 21.25 19.4347 19.2698 19.6567 16.9145L20.3301 10.8315C20.575 8.28871 19.5036 5.80598 17.5215 4.31333Z"/><g filter="url(#filter3_f_1_36786)"><path stroke="url(#paint19_linear_1_36786)" stroke-width=".113" d="M9.46973 17.8363C9.29683 17.5695 9.5898 17.2547 9.86523 17.4027C10.5066 17.7445 11.2741 17.9457 12.0938 17.9457C12.9134 17.9457 13.6812 17.7449 14.3379 17.4027L14.3389 17.4018C14.5965 17.2723 14.8623 17.5399 14.7578 17.7875L14.7324 17.8363C14.1701 18.702 13.2036 19.2777 12.1006 19.2777C10.998 19.2776 10.0247 18.7023 9.46973 17.8363Z"/></g><g filter="url(#filter4_i_1_36786)"><path fill="#89024E" d="M12.0936 18.0017C11.2647 18.0017 10.4881 17.7985 9.83838 17.4522C9.61436 17.3317 9.37539 17.5877 9.51728 17.806C10.0624 18.6567 11.0183 19.2213 12.1011 19.2213C13.1839 19.2213 14.1323 18.6567 14.6849 17.806C14.8193 17.5952 14.5878 17.3393 14.3638 17.4522C13.6991 17.7985 12.9225 18.0017 12.0936 18.0017Z"/></g><path fill="#fff" d="M15.6321 12.8246C16.8396 12.8246 17.8596 13.6571 18.1371 14.7821C18.2196 15.1046 17.9721 15.4121 17.6421 15.4121H13.5171C13.2546 15.4121 13.0446 15.1721 13.0971 14.9096C13.3296 13.7246 14.3721 12.8246 15.6321 12.8246Z"/><path fill="#fff" d="M8.13207 12.8246C6.92457 12.8246 5.90457 13.6571 5.62707 14.7821C5.54457 15.1046 5.79207 15.4121 6.12207 15.4121H10.2471C10.5096 15.4121 10.7196 15.1721 10.6671 14.9096C10.4346 13.7246 9.38457 12.8246 8.13207 12.8246Z"/><path fill="url(#paint20_radial_1_36786)" d="M15.2496 13.327C16.1646 13.327 16.8996 14.0695 16.8996 14.977C16.8996 15.127 16.8771 15.277 16.8396 15.412H13.6521C13.6146 15.2695 13.5921 15.127 13.5921 14.977C13.5921 14.0695 14.3346 13.327 15.2496 13.327Z"/><path fill="url(#paint21_radial_1_36786)" d="M8.51462 13.327C7.59962 13.327 6.86462 14.0695 6.86462 14.977C6.86462 15.127 6.88712 15.277 6.92462 15.412H10.1121C10.1496 15.2695 10.1721 15.127 10.1721 14.977C10.1646 14.0695 9.42962 13.327 8.51462 13.327Z"/><path fill="#000" d="M14.3046 14.977C14.3046 14.452 14.7246 14.032 15.2496 14.032C15.7746 14.032 16.1946 14.452 16.1946 14.977C16.1946 15.1345 16.1571 15.2845 16.0896 15.412H14.4171C14.3421 15.2845 14.3046 15.1345 14.3046 14.977Z"/><path fill="#000" d="M9.45958 14.977C9.45958 14.452 9.03958 14.032 8.51458 14.032C7.98958 14.032 7.56958 14.452 7.56958 14.977C7.56958 15.1345 7.60708 15.2845 7.67458 15.412H9.34708C9.41458 15.2845 9.45958 15.1345 9.45958 14.977Z"/><g filter="url(#filter5_i_1_36786)"><path stroke="#1F1917" stroke-linecap="round" stroke-linejoin="round" stroke-miterlimit="10" stroke-width=".75" d="M7.20959 11.3396C7.65209 11.1821 8.26709 11.0696 9.06209 11.1446"/></g><g filter="url(#filter6_f_1_36786)"><path stroke="url(#paint22_linear_1_36786)" stroke-linecap="round" stroke-linejoin="round" stroke-miterlimit="10" stroke-width=".225" d="M7.25061 11.2692C7.69311 11.1117 8.30811 10.9992 9.10311 11.0742"/></g><g filter="url(#filter7_f_1_36786)"><path fill="url(#paint23_linear_1_36786)" d="M13.862 6.85966L17.1328 5.11523C19.2125 6.61523 19.3063 9.32617 19.2125 10.0605L15.0783 10.623C14.0168 10.7674 13.0288 10.0536 12.8325 9.00057C12.6718 8.13873 13.0885 7.27222 13.862 6.85966Z"/></g><g filter="url(#filter8_f_1_36786)"><path fill="url(#paint24_linear_1_36786)" d="M12.1892 2.25456C11.0844 2.08769 10.121 2.25251 9.49631 3.08752C10.9922 3.08752 13.037 4.00526 12.7404 5.96916C12.6569 6.52155 12.5799 6.88414 12.1892 7.22201C12.1191 7.28107 12.0732 7.36412 12.061 7.45184C12.0264 7.70151 12.2441 7.91737 12.4915 7.86913C13.6785 7.64163 14.4491 6.79057 14.6249 5.52197C14.8486 3.9574 13.7519 2.49179 12.1892 2.25456Z"/></g><g filter="url(#filter9_i_1_36786)"><path fill="#222120" d="M11.8733 1.52954C10.6433 1.51454 9.57832 2.18954 9.02332 3.19454C9.48832 3.08954 9.96081 3.02954 10.4333 3.02954H10.5458C11.9033 3.02954 13.0433 4.13954 13.0358 5.49704C13.0283 6.11204 12.8033 6.66704 12.4283 7.09454C12.3608 7.16954 12.3233 7.26704 12.3233 7.36454C12.3233 7.64204 12.5933 7.84454 12.8558 7.75454C14.1158 7.32704 15.0233 6.13454 15.0233 4.72454C15.0308 2.98454 13.6133 1.55204 11.8733 1.52954Z"/><path fill="url(#paint25_radial_1_36786)" d="M11.8733 1.52954C10.6433 1.51454 9.57832 2.18954 9.02332 3.19454C9.48832 3.08954 9.96081 3.02954 10.4333 3.02954H10.5458C11.9033 3.02954 13.0433 4.13954 13.0358 5.49704C13.0283 6.11204 12.8033 6.66704 12.4283 7.09454C12.3608 7.16954 12.3233 7.26704 12.3233 7.36454C12.3233 7.64204 12.5933 7.84454 12.8558 7.75454C14.1158 7.32704 15.0233 6.13454 15.0233 4.72454C15.0308 2.98454 13.6133 1.55204 11.8733 1.52954Z"/><path fill="url(#paint26_radial_1_36786)" d="M11.8733 1.52954C10.6433 1.51454 9.57832 2.18954 9.02332 3.19454C9.48832 3.08954 9.96081 3.02954 10.4333 3.02954H10.5458C11.9033 3.02954 13.0433 4.13954 13.0358 5.49704C13.0283 6.11204 12.8033 6.66704 12.4283 7.09454C12.3608 7.16954 12.3233 7.26704 12.3233 7.36454C12.3233 7.64204 12.5933 7.84454 12.8558 7.75454C14.1158 7.32704 15.0233 6.13454 15.0233 4.72454C15.0308 2.98454 13.6133 1.55204 11.8733 1.52954Z"/><path fill="url(#paint27_radial_1_36786)" d="M11.8733 1.52954C10.6433 1.51454 9.57832 2.18954 9.02332 3.19454C9.48832 3.08954 9.96081 3.02954 10.4333 3.02954H10.5458C11.9033 3.02954 13.0433 4.13954 13.0358 5.49704C13.0283 6.11204 12.8033 6.66704 12.4283 7.09454C12.3608 7.16954 12.3233 7.26704 12.3233 7.36454C12.3233 7.64204 12.5933 7.84454 12.8558 7.75454C14.1158 7.32704 15.0233 6.13454 15.0233 4.72454C15.0308 2.98454 13.6133 1.55204 11.8733 1.52954Z"/><path fill="url(#paint28_radial_1_36786)" d="M11.8733 1.52954C10.6433 1.51454 9.57832 2.18954 9.02332 3.19454C9.48832 3.08954 9.96081 3.02954 10.4333 3.02954H10.5458C11.9033 3.02954 13.0433 4.13954 13.0358 5.49704C13.0283 6.11204 12.8033 6.66704 12.4283 7.09454C12.3608 7.16954 12.3233 7.26704 12.3233 7.36454C12.3233 7.64204 12.5933 7.84454 12.8558 7.75454C14.1158 7.32704 15.0233 6.13454 15.0233 4.72454C15.0308 2.98454 13.6133 1.55204 11.8733 1.52954Z"/></g><g filter="url(#filter10_f_1_36786)"><path fill="#DA9C94" d="M12.0018 17.2793C12.3837 17.2793 12.7251 17.0686 12.9201 16.7527C13.0989 16.4631 12.912 16.0769 12.5869 16.0769H11.4166C11.0916 16.0769 10.8965 16.4719 11.0834 16.7527C11.2785 17.0774 11.6198 17.2793 12.0018 17.2793Z"/></g><g filter="url(#filter11_f_1_36786)"><path fill="url(#paint29_radial_1_36786)" d="M12.1014 17.0168C12.4833 17.0168 12.8247 16.8062 13.0197 16.4902C13.1985 16.2006 13.0116 15.8145 12.6865 15.8145H11.5163C11.1912 15.8145 10.9961 16.2094 11.1831 16.4902C11.3781 16.8149 11.7194 17.0168 12.1014 17.0168Z"/><path fill="url(#paint30_radial_1_36786)" d="M12.1014 17.0168C12.4833 17.0168 12.8247 16.8062 13.0197 16.4902C13.1985 16.2006 13.0116 15.8145 12.6865 15.8145H11.5163C11.1912 15.8145 10.9961 16.2094 11.1831 16.4902C11.3781 16.8149 11.7194 17.0168 12.1014 17.0168Z"/></g><g filter="url(#filter12_f_1_36786)"><path fill="#C7A7A3" d="M15.1282 13.6758C15.2458 13.833 15.0001 14.0247 14.7207 14.2336C14.4413 14.4425 14.234 14.5895 14.1165 14.4323C13.9989 14.275 14.1301 13.9782 14.4095 13.7694C14.6889 13.5605 15.0107 13.5186 15.1282 13.6758Z"/><path fill="url(#paint31_radial_1_36786)" d="M15.1282 13.6758C15.2458 13.833 15.0001 14.0247 14.7207 14.2336C14.4413 14.4425 14.234 14.5895 14.1165 14.4323C13.9989 14.275 14.1301 13.9782 14.4095 13.7694C14.6889 13.5605 15.0107 13.5186 15.1282 13.6758Z"/></g><g filter="url(#filter13_f_1_36786)"><path fill="url(#paint32_linear_1_36786)" d="M16.7193 14.7598C16.6584 14.3332 16.4088 14.0117 16.2916 13.9043L15.8111 14.4316L16.0279 14.8535L16.7193 14.7598Z"/></g><g filter="url(#filter14_f_1_36786)"><path fill="url(#paint33_linear_1_36786)" d="M10.022 14.7832C10.022 14.25 9.58838 13.8945 9.47119 13.7871L8.93799 14.3027L9.26611 14.9707L10.022 14.7832Z"/></g><g filter="url(#filter15_f_1_36786)"><ellipse cx="8.017" cy="14.032" fill="#C7A7A3" fill-opacity=".9" rx=".72" ry=".365" transform="rotate(-27.914 8.01676 14.032)"/><ellipse cx="8.017" cy="14.032" fill="url(#paint34_radial_1_36786)" rx=".72" ry=".365" transform="rotate(-27.914 8.01676 14.032)"/></g><g filter="url(#filter16_i_1_36786)"><path stroke="#1F1917" stroke-linecap="round" stroke-linejoin="round" stroke-miterlimit="10" stroke-width=".75" d="M16.6371 11.3396C16.1946 11.1821 15.5796 11.0696 14.7846 11.1446"/></g><g filter="url(#filter17_f_1_36786)"><path stroke="url(#paint35_linear_1_36786)" stroke-linecap="round" stroke-linejoin="round" stroke-miterlimit="10" stroke-width=".225" d="M16.6371 11.2301C16.1946 11.0726 15.5796 10.9601 14.7846 11.0351"/></g><path fill="url(#paint36_radial_1_36786)" d="M23.2383 6.02509C23.2383 8.92458 20.8878 11.2751 17.9883 11.2751C15.0888 11.2751 12.7383 8.92458 12.7383 6.02509C12.7383 3.12559 15.0888 0.775085 17.9883 0.775085C20.8878 0.775085 23.2383 3.12559 23.2383 6.02509Z"/><path fill="url(#paint37_radial_1_36786)" d="M23.2383 6.02509C23.2383 8.92458 20.8878 11.2751 17.9883 11.2751C15.0888 11.2751 12.7383 8.92458 12.7383 6.02509C12.7383 3.12559 15.0888 0.775085 17.9883 0.775085C20.8878 0.775085 23.2383 3.12559 23.2383 6.02509Z"/><path fill="url(#paint38_radial_1_36786)" d="M23.2383 6.02509C23.2383 8.92458 20.8878 11.2751 17.9883 11.2751C15.0888 11.2751 12.7383 8.92458 12.7383 6.02509C12.7383 3.12559 15.0888 0.775085 17.9883 0.775085C20.8878 0.775085 23.2383 3.12559 23.2383 6.02509Z"/><path fill="url(#paint39_radial_1_36786)" d="M23.2383 6.02509C23.2383 8.92458 20.8878 11.2751 17.9883 11.2751C15.0888 11.2751 12.7383 8.92458 12.7383 6.02509C12.7383 3.12559 15.0888 0.775085 17.9883 0.775085C20.8878 0.775085 23.2383 3.12559 23.2383 6.02509Z"/><path fill="url(#paint40_linear_1_36786)" fill-rule="evenodd" d="M17.9991 2.65338C18.2062 2.65338 18.3741 2.82127 18.3741 3.02838V6.02665C18.3741 6.23376 18.2062 6.40165 17.9991 6.40165C17.792 6.40165 17.6241 6.23376 17.6241 6.02665V3.02838C17.6241 2.82127 17.792 2.65338 17.9991 2.65338Z" clip-rule="evenodd"/><path fill="url(#paint41_radial_1_36786)" fill-rule="evenodd" d="M17.9991 2.65338C18.2062 2.65338 18.3741 2.82127 18.3741 3.02838V6.02665C18.3741 6.23376 18.2062 6.40165 17.9991 6.40165C17.792 6.40165 17.6241 6.23376 17.6241 6.02665V3.02838C17.6241 2.82127 17.792 2.65338 17.9991 2.65338Z" clip-rule="evenodd"/><path fill="url(#paint42_linear_1_36786)" fill-rule="evenodd" d="M17.9991 2.65338C18.2062 2.65338 18.3741 2.82127 18.3741 3.02838V6.02665C18.3741 6.23376 18.2062 6.40165 17.9991 6.40165C17.792 6.40165 17.6241 6.23376 17.6241 6.02665V3.02838C17.6241 2.82127 17.792 2.65338 17.9991 2.65338Z" clip-rule="evenodd"/><path fill="url(#paint43_radial_1_36786)" fill-rule="evenodd" d="M17.9991 2.65338C18.2062 2.65338 18.3741 2.82127 18.3741 3.02838V6.02665C18.3741 6.23376 18.2062 6.40165 17.9991 6.40165C17.792 6.40165 17.6241 6.23376 17.6241 6.02665V3.02838C17.6241 2.82127 17.792 2.65338 17.9991 2.65338Z" clip-rule="evenodd"/><path fill="url(#paint44_linear_1_36786)" fill-rule="evenodd" d="M19.2947 3.76666C19.474 3.87022 19.5355 4.09956 19.4319 4.27892L18.3131 6.21682C18.2095 6.39617 17.9802 6.45763 17.8008 6.35407C17.6215 6.25052 17.56 6.02117 17.6636 5.84182L18.7824 3.90392C18.886 3.72456 19.1153 3.66311 19.2947 3.76666Z" clip-rule="evenodd"/><path fill="url(#paint45_linear_1_36786)" fill-rule="evenodd" d="M19.2947 3.76666C19.474 3.87022 19.5355 4.09956 19.4319 4.27892L18.3131 6.21682C18.2095 6.39617 17.9802 6.45763 17.8008 6.35407C17.6215 6.25052 17.56 6.02117 17.6636 5.84182L18.7824 3.90392C18.886 3.72456 19.1153 3.66311 19.2947 3.76666Z" clip-rule="evenodd"/><path fill="url(#paint46_radial_1_36786)" fill-rule="evenodd" d="M19.2947 3.76666C19.474 3.87022 19.5355 4.09956 19.4319 4.27892L18.3131 6.21682C18.2095 6.39617 17.9802 6.45763 17.8008 6.35407C17.6215 6.25052 17.56 6.02117 17.6636 5.84182L18.7824 3.90392C18.886 3.72456 19.1153 3.66311 19.2947 3.76666Z" clip-rule="evenodd"/><path fill="url(#paint47_linear_1_36786)" fill-rule="evenodd" d="M19.2947 3.76666C19.474 3.87022 19.5355 4.09956 19.4319 4.27892L18.3131 6.21682C18.2095 6.39617 17.9802 6.45763 17.8008 6.35407C17.6215 6.25052 17.56 6.02117 17.6636 5.84182L18.7824 3.90392C18.886 3.72456 19.1153 3.66311 19.2947 3.76666Z" clip-rule="evenodd"/><path fill="url(#paint48_radial_1_36786)" fill-opacity=".7" fill-rule="evenodd" d="M19.2947 3.76666C19.474 3.87022 19.5355 4.09956 19.4319 4.27892L18.3131 6.21682C18.2095 6.39617 17.9802 6.45763 17.8008 6.35407C17.6215 6.25052 17.56 6.02117 17.6636 5.84182L18.7824 3.90392C18.886 3.72456 19.1153 3.66311 19.2947 3.76666Z" clip-rule="evenodd"/><path fill="url(#paint49_linear_1_36786)" fill-rule="evenodd" d="M17.9883 10.1501C20.2665 10.1501 22.1133 8.30326 22.1133 6.02509C22.1133 3.74691 20.2665 1.90009 17.9883 1.90009C15.7101 1.90009 13.8633 3.74691 13.8633 6.02509C13.8633 8.30326 15.7101 10.1501 17.9883 10.1501ZM17.9883 11.2751C20.8878 11.2751 23.2383 8.92458 23.2383 6.02509C23.2383 3.12559 20.8878 0.775085 17.9883 0.775085C15.0888 0.775085 12.7383 3.12559 12.7383 6.02509C12.7383 8.92458 15.0888 11.2751 17.9883 11.2751Z" clip-rule="evenodd"/><path fill="url(#paint50_radial_1_36786)" fill-rule="evenodd" d="M17.9883 10.1501C20.2665 10.1501 22.1133 8.30326 22.1133 6.02509C22.1133 3.74691 20.2665 1.90009 17.9883 1.90009C15.7101 1.90009 13.8633 3.74691 13.8633 6.02509C13.8633 8.30326 15.7101 10.1501 17.9883 10.1501ZM17.9883 11.2751C20.8878 11.2751 23.2383 8.92458 23.2383 6.02509C23.2383 3.12559 20.8878 0.775085 17.9883 0.775085C15.0888 0.775085 12.7383 3.12559 12.7383 6.02509C12.7383 8.92458 15.0888 11.2751 17.9883 11.2751Z" clip-rule="evenodd"/><path fill="url(#paint51_radial_1_36786)" fill-rule="evenodd" d="M17.9883 10.1501C20.2665 10.1501 22.1133 8.30326 22.1133 6.02509C22.1133 3.74691 20.2665 1.90009 17.9883 1.90009C15.7101 1.90009 13.8633 3.74691 13.8633 6.02509C13.8633 8.30326 15.7101 10.1501 17.9883 10.1501ZM17.9883 11.2751C20.8878 11.2751 23.2383 8.92458 23.2383 6.02509C23.2383 3.12559 20.8878 0.775085 17.9883 0.775085C15.0888 0.775085 12.7383 3.12559 12.7383 6.02509C12.7383 8.92458 15.0888 11.2751 17.9883 11.2751Z" clip-rule="evenodd"/><path fill="url(#paint52_radial_1_36786)" fill-rule="evenodd" d="M17.9883 10.1501C20.2665 10.1501 22.1133 8.30326 22.1133 6.02509C22.1133 3.74691 20.2665 1.90009 17.9883 1.90009C15.7101 1.90009 13.8633 3.74691 13.8633 6.02509C13.8633 8.30326 15.7101 10.1501 17.9883 10.1501ZM17.9883 11.2751C20.8878 11.2751 23.2383 8.92458 23.2383 6.02509C23.2383 3.12559 20.8878 0.775085 17.9883 0.775085C15.0888 0.775085 12.7383 3.12559 12.7383 6.02509C12.7383 8.92458 15.0888 11.2751 17.9883 11.2751Z" clip-rule="evenodd"/><path fill="url(#paint53_radial_1_36786)" fill-rule="evenodd" d="M17.9883 10.1501C20.2665 10.1501 22.1133 8.30326 22.1133 6.02509C22.1133 3.74691 20.2665 1.90009 17.9883 1.90009C15.7101 1.90009 13.8633 3.74691 13.8633 6.02509C13.8633 8.30326 15.7101 10.1501 17.9883 10.1501ZM17.9883 11.2751C20.8878 11.2751 23.2383 8.92458 23.2383 6.02509C23.2383 3.12559 20.8878 0.775085 17.9883 0.775085C15.0888 0.775085 12.7383 3.12559 12.7383 6.02509C12.7383 8.92458 15.0888 11.2751 17.9883 11.2751Z" clip-rule="evenodd"/><path fill="url(#paint54_radial_1_36786)" d="M18.7458 6.02932C18.7458 6.44122 18.4119 6.77513 18 6.77513C17.5881 6.77513 17.2542 6.44122 17.2542 6.02932C17.2542 5.61742 17.5881 5.28351 18 5.28351C18.4119 5.28351 18.7458 5.61742 18.7458 6.02932Z"/><path fill="url(#paint55_radial_1_36786)" d="M18.7458 6.02932C18.7458 6.44122 18.4119 6.77513 18 6.77513C17.5881 6.77513 17.2542 6.44122 17.2542 6.02932C17.2542 5.61742 17.5881 5.28351 18 5.28351C18.4119 5.28351 18.7458 5.61742 18.7458 6.02932Z"/><defs><filter id="filter0_f_1_36786" width="3.404" height="3.404" x="3.272" y="13.139" color-interpolation-filters="sRGB" filterUnits="userSpaceOnUse"><feFlood flood-opacity="0" result="BackgroundImageFix"/><feBlend in="SourceGraphic" in2="BackgroundImageFix" mode="normal" result="shape"/><feGaussianBlur result="effect1_foregroundBlur_1_36786" stdDeviation=".094"/></filter><filter id="filter1_f_1_36786" width="3.497" height="3.497" x="17.476" y="13.093" color-interpolation-filters="sRGB" filterUnits="userSpaceOnUse"><feFlood flood-opacity="0" result="BackgroundImageFix"/><feBlend in="SourceGraphic" in2="BackgroundImageFix" mode="normal" result="shape"/><feGaussianBlur result="effect1_foregroundBlur_1_36786" stdDeviation=".094"/></filter><filter id="filter2_ii_1_36786" width="17.738" height="19.5" x="3.565" y="2.971" color-interpolation-filters="sRGB" filterUnits="userSpaceOnUse"><feFlood flood-opacity="0" result="BackgroundImageFix"/><feBlend in="SourceGraphic" in2="BackgroundImageFix" mode="normal" result="shape"/><feColorMatrix in="SourceAlpha" result="hardAlpha" type="matrix" values="0 0 0 0 0 0 0 0 0 0 0 0 0 0 0 0 0 0 127 0"/><feOffset dx=".938"/><feGaussianBlur stdDeviation=".75"/><feComposite in2="hardAlpha" k2="-1" k3="1" operator="arithmetic"/><feColorMatrix type="matrix" values="0 0 0 0 0.905882 0 0 0 0 0.682353 0 0 0 0 0.592157 0 0 0 1 0"/><feBlend in2="shape" mode="normal" result="effect1_innerShadow_1_36786"/><feColorMatrix in="SourceAlpha" result="hardAlpha" type="matrix" values="0 0 0 0 0 0 0 0 0 0 0 0 0 0 0 0 0 0 127 0"/><feOffset dx="-.3"/><feGaussianBlur stdDeviation=".45"/><feComposite in2="hardAlpha" k2="-1" k3="1" operator="arithmetic"/><feColorMatrix type="matrix" values="0 0 0 0 1 0 0 0 0 0.85098 0 0 0 0 0.737255 0 0 0 1 0"/><feBlend in2="effect1_innerShadow_1_36786" mode="normal" result="effect2_innerShadow_1_36786"/></filter><filter id="filter3_f_1_36786" width="5.626" height="2.176" x="9.286" y="17.233" color-interpolation-filters="sRGB" filterUnits="userSpaceOnUse"><feFlood flood-opacity="0" result="BackgroundImageFix"/><feBlend in="SourceGraphic" in2="BackgroundImageFix" mode="normal" result="shape"/><feGaussianBlur result="effect1_foregroundBlur_1_36786" stdDeviation=".037"/></filter><filter id="filter4_i_1_36786" width="5.25" height="1.8" x="9.475" y="17.421" color-interpolation-filters="sRGB" filterUnits="userSpaceOnUse"><feFlood flood-opacity="0" result="BackgroundImageFix"/><feBlend in="SourceGraphic" in2="BackgroundImageFix" mode="normal" result="shape"/><feColorMatrix in="SourceAlpha" result="hardAlpha" type="matrix" values="0 0 0 0 0 0 0 0 0 0 0 0 0 0 0 0 0 0 127 0"/><feOffset/><feGaussianBlur stdDeviation=".375"/><feComposite in2="hardAlpha" k2="-1" k3="1" operator="arithmetic"/><feColorMatrix type="matrix" values="0 0 0 0 0.529412 0 0 0 0 0 0 0 0 0 0.301961 0 0 0 1 0"/><feBlend in2="shape" mode="normal" result="effect1_innerShadow_1_36786"/></filter><filter id="filter5_i_1_36786" width="2.79" height="1.194" x="6.834" y="10.521" color-interpolation-filters="sRGB" filterUnits="userSpaceOnUse"><feFlood flood-opacity="0" result="BackgroundImageFix"/><feBlend in="SourceGraphic" in2="BackgroundImageFix" mode="normal" result="shape"/><feColorMatrix in="SourceAlpha" result="hardAlpha" type="matrix" values="0 0 0 0 0 0 0 0 0 0 0 0 0 0 0 0 0 0 127 0"/><feOffset dx=".188" dy="-.225"/><feGaussianBlur stdDeviation=".188"/><feComposite in2="hardAlpha" k2="-1" k3="1" operator="arithmetic"/><feColorMatrix type="matrix" values="0 0 0 0 0.105882 0 0 0 0 0.0666667 0 0 0 0 0.0980392 0 0 0 1 0"/><feBlend in2="shape" mode="normal" result="effect1_innerShadow_1_36786"/></filter><filter id="filter6_f_1_36786" width="2.378" height=".744" x="6.988" y="10.788" color-interpolation-filters="sRGB" filterUnits="userSpaceOnUse"><feFlood flood-opacity="0" result="BackgroundImageFix"/><feBlend in="SourceGraphic" in2="BackgroundImageFix" mode="normal" result="shape"/><feGaussianBlur result="effect1_foregroundBlur_1_36786" stdDeviation=".075"/></filter><filter id="filter7_f_1_36786" width="10.188" height="9.276" x="10.923" y="3.24" color-interpolation-filters="sRGB" filterUnits="userSpaceOnUse"><feFlood flood-opacity="0" result="BackgroundImageFix"/><feBlend in="SourceGraphic" in2="BackgroundImageFix" mode="normal" result="shape"/><feGaussianBlur result="effect1_foregroundBlur_1_36786" stdDeviation=".938"/></filter><filter id="filter8_f_1_36786" width="5.908" height="6.43" x="9.121" y="1.821" color-interpolation-filters="sRGB" filterUnits="userSpaceOnUse"><feFlood flood-opacity="0" result="BackgroundImageFix"/><feBlend in="SourceGraphic" in2="BackgroundImageFix" mode="normal" result="shape"/><feGaussianBlur result="effect1_foregroundBlur_1_36786" stdDeviation=".188"/></filter><filter id="filter9_i_1_36786" width="6.075" height="6.397" x="8.948" y="1.379" color-interpolation-filters="sRGB" filterUnits="userSpaceOnUse"><feFlood flood-opacity="0" result="BackgroundImageFix"/><feBlend in="SourceGraphic" in2="BackgroundImageFix" mode="normal" result="shape"/><feColorMatrix in="SourceAlpha" result="hardAlpha" type="matrix" values="0 0 0 0 0 0 0 0 0 0 0 0 0 0 0 0 0 0 127 0"/><feOffset dx="-.075" dy="-.15"/><feGaussianBlur stdDeviation=".188"/><feComposite in2="hardAlpha" k2="-1" k3="1" operator="arithmetic"/><feColorMatrix type="matrix" values="0 0 0 0 0.176471 0 0 0 0 0.129412 0 0 0 0 0.121569 0 0 0 1 0"/><feBlend in2="shape" mode="normal" result="effect1_innerShadow_1_36786"/></filter><filter id="filter10_f_1_36786" width="2.729" height="1.952" x="10.636" y="15.702" color-interpolation-filters="sRGB" filterUnits="userSpaceOnUse"><feFlood flood-opacity="0" result="BackgroundImageFix"/><feBlend in="SourceGraphic" in2="BackgroundImageFix" mode="normal" result="shape"/><feGaussianBlur result="effect1_foregroundBlur_1_36786" stdDeviation=".188"/></filter><filter id="filter11_f_1_36786" width="2.354" height="1.577" x="10.923" y="15.627" color-interpolation-filters="sRGB" filterUnits="userSpaceOnUse"><feFlood flood-opacity="0" result="BackgroundImageFix"/><feBlend in="SourceGraphic" in2="BackgroundImageFix" mode="normal" result="shape"/><feGaussianBlur result="effect1_foregroundBlur_1_36786" stdDeviation=".094"/></filter><filter id="filter12_f_1_36786" width="1.235" height="1.068" x="13.998" y="13.506" color-interpolation-filters="sRGB" filterUnits="userSpaceOnUse"><feFlood flood-opacity="0" result="BackgroundImageFix"/><feBlend in="SourceGraphic" in2="BackgroundImageFix" mode="normal" result="shape"/><feGaussianBlur result="effect1_foregroundBlur_1_36786" stdDeviation=".037"/></filter><filter id="filter13_f_1_36786" width="1.208" height="1.249" x="15.661" y="13.754" color-interpolation-filters="sRGB" filterUnits="userSpaceOnUse"><feFlood flood-opacity="0" result="BackgroundImageFix"/><feBlend in="SourceGraphic" in2="BackgroundImageFix" mode="normal" result="shape"/><feGaussianBlur result="effect1_foregroundBlur_1_36786" stdDeviation=".075"/></filter><filter id="filter14_f_1_36786" width="1.384" height="1.484" x="8.788" y="13.637" color-interpolation-filters="sRGB" filterUnits="userSpaceOnUse"><feFlood flood-opacity="0" result="BackgroundImageFix"/><feBlend in="SourceGraphic" in2="BackgroundImageFix" mode="normal" result="shape"/><feGaussianBlur result="effect1_foregroundBlur_1_36786" stdDeviation=".075"/></filter><filter id="filter15_f_1_36786" width="1.468" height="1.083" x="7.283" y="13.491" color-interpolation-filters="sRGB" filterUnits="userSpaceOnUse"><feFlood flood-opacity="0" result="BackgroundImageFix"/><feBlend in="SourceGraphic" in2="BackgroundImageFix" mode="normal" result="shape"/><feGaussianBlur result="effect1_foregroundBlur_1_36786" stdDeviation=".037"/></filter><filter id="filter16_i_1_36786" width="2.79" height="1.194" x="14.222" y="10.521" color-interpolation-filters="sRGB" filterUnits="userSpaceOnUse"><feFlood flood-opacity="0" result="BackgroundImageFix"/><feBlend in="SourceGraphic" in2="BackgroundImageFix" mode="normal" result="shape"/><feColorMatrix in="SourceAlpha" result="hardAlpha" type="matrix" values="0 0 0 0 0 0 0 0 0 0 0 0 0 0 0 0 0 0 127 0"/><feOffset dx="-.188" dy="-.225"/><feGaussianBlur stdDeviation=".188"/><feComposite in2="hardAlpha" k2="-1" k3="1" operator="arithmetic"/><feColorMatrix type="matrix" values="0 0 0 0 0.105882 0 0 0 0 0.0666667 0 0 0 0 0.0980392 0 0 0 1 0"/><feBlend in2="shape" mode="normal" result="effect1_innerShadow_1_36786"/></filter><filter id="filter17_f_1_36786" width="2.378" height=".744" x="14.522" y="10.749" color-interpolation-filters="sRGB" filterUnits="userSpaceOnUse"><feFlood flood-opacity="0" result="BackgroundImageFix"/><feBlend in="SourceGraphic" in2="BackgroundImageFix" mode="normal" result="shape"/><feGaussianBlur result="effect1_foregroundBlur_1_36786" stdDeviation=".075"/></filter><linearGradient id="paint0_linear_1_36786" x1="2.93" x2="4.688" y1="12.779" y2="17.279" gradientUnits="userSpaceOnUse"><stop stop-color="#D5967D"/><stop offset="1" stop-color="#CA8581"/></linearGradient><radialGradient id="paint1_radial_1_36786" cx="0" cy="0" r="1" gradientTransform="translate(4.97461 14.9824) rotate(176.967) scale(2.65802 2.76398)" gradientUnits="userSpaceOnUse"><stop offset=".795" stop-color="#ECB099" stop-opacity="0"/><stop offset="1" stop-color="#DDA388"/><stop offset="1" stop-color="#ECB099"/></radialGradient><radialGradient id="paint2_radial_1_36786" cx="0" cy="0" r="1" gradientTransform="translate(4.97457 14.8418) rotate(90) scale(1.51473)" gradientUnits="userSpaceOnUse"><stop stop-color="#CC8A77"/><stop offset="1" stop-color="#CF8B77"/></radialGradient><linearGradient id="paint3_linear_1_36786" x1="21.387" x2="19.45" y1="13.576" y2="16.717" gradientUnits="userSpaceOnUse"><stop stop-color="#FFDBC1"/><stop offset="1" stop-color="#EBB2A3"/></linearGradient><radialGradient id="paint4_radial_1_36786" cx="0" cy="0" r="1" gradientTransform="translate(19.4849 13.9512) rotate(90.9485) scale(3.53955 3.39211)" gradientUnits="userSpaceOnUse"><stop offset=".766" stop-color="#C88E90" stop-opacity="0"/><stop offset="1" stop-color="#C88E90"/></radialGradient><radialGradient id="paint5_radial_1_36786" cx="0" cy="0" r="1" gradientTransform="translate(19.4849 14.5371) rotate(-48.351) scale(2.08583 2.05828)" gradientUnits="userSpaceOnUse"><stop offset=".586" stop-color="#F7B899"/><stop offset=".883" stop-color="#F7B899" stop-opacity="0"/></radialGradient><radialGradient id="paint6_radial_1_36786" cx="0" cy="0" r="1" gradientTransform="translate(19.6289 15.5098) rotate(-77.9694) scale(2.92359 2.29584)" gradientUnits="userSpaceOnUse"><stop offset=".879" stop-color="#F5C9AE" stop-opacity="0"/><stop offset="1" stop-color="#F5C9AE"/></radialGradient><radialGradient id="paint7_radial_1_36786" cx="0" cy="0" r="1" gradientTransform="translate(19.7344 14.959) rotate(8.97263) scale(1.12707 1.66624)" gradientUnits="userSpaceOnUse"><stop offset=".55" stop-color="#F7BCA4"/><stop offset="1" stop-color="#F6B799"/></radialGradient><linearGradient id="paint8_linear_1_36786" x1="7.125" x2="15.656" y1="12.721" y2="12.721" gradientUnits="userSpaceOnUse"><stop stop-color="#F7C2AD"/><stop offset="1" stop-color="#FFD0BA"/></linearGradient><linearGradient id="paint9_linear_1_36786" x1="12.115" x2="12.115" y1="22.904" y2="19.061" gradientUnits="userSpaceOnUse"><stop offset=".195" stop-color="#BC7F90"/><stop offset="1" stop-color="#BC7F90" stop-opacity="0"/></linearGradient><linearGradient id="paint10_linear_1_36786" x1="5.203" x2="13.641" y1="13.529" y2="15.685" gradientUnits="userSpaceOnUse"><stop stop-color="#D6A091"/><stop offset="1" stop-color="#D6A091" stop-opacity="0"/></linearGradient><radialGradient id="paint11_radial_1_36786" cx="0" cy="0" r="1" gradientTransform="translate(4.125 14.7012) rotate(82.1709) scale(7.57057 2.30829)" gradientUnits="userSpaceOnUse"><stop stop-color="#EAB09A"/><stop offset="1" stop-color="#EAB09A" stop-opacity="0"/></radialGradient><radialGradient id="paint12_radial_1_36786" cx="0" cy="0" r="1" gradientTransform="translate(8.10938 22.4707) rotate(-95.4923) scale(9.79497 15.3696)" gradientUnits="userSpaceOnUse"><stop offset=".109" stop-color="#C48A90"/><stop offset="1" stop-color="#C48A90" stop-opacity="0"/></radialGradient><radialGradient id="paint13_radial_1_36786" cx="0" cy="0" r="1" gradientTransform="translate(8.29687 13.7871) rotate(-61.8214) scale(2.23346 2.97795)" gradientUnits="userSpaceOnUse"><stop offset=".189" stop-color="#CE9390"/><stop offset="1" stop-color="#CE9390" stop-opacity="0"/></radialGradient><radialGradient id="paint14_radial_1_36786" cx="0" cy="0" r="1" gradientTransform="translate(16.0313 13.9746) rotate(-79.5793) scale(2.07326 2.4275)" gradientUnits="userSpaceOnUse"><stop offset=".235" stop-color="#F3B6A7"/><stop offset="1" stop-color="#F5B8A9" stop-opacity="0"/></radialGradient><radialGradient id="paint15_radial_1_36786" cx="0" cy="0" r="1" gradientTransform="translate(18.8437 14.5136) rotate(108.435) scale(4.29872 7.00395)" gradientUnits="userSpaceOnUse"><stop stop-color="#FFDDC0"/><stop offset="1" stop-color="#FFDDC0" stop-opacity="0"/></radialGradient><radialGradient id="paint16_radial_1_36786" cx="0" cy="0" r="1" gradientTransform="translate(4.17188 6.63865) rotate(32.9574) scale(5.08372 9.58179)" gradientUnits="userSpaceOnUse"><stop stop-color="#E5B095"/><stop offset="1" stop-color="#E5B095" stop-opacity="0"/></radialGradient><linearGradient id="paint17_linear_1_36786" x1="12.115" x2="12.115" y1="22.904" y2="20.279" gradientUnits="userSpaceOnUse"><stop offset=".195" stop-color="#B47999"/><stop offset="1" stop-color="#B47999" stop-opacity="0"/></linearGradient><radialGradient id="paint18_radial_1_36786" cx="0" cy="0" r="1" gradientTransform="translate(13.0781 16.7168) rotate(-106.498) scale(14.0307 20.2722)" gradientUnits="userSpaceOnUse"><stop offset=".825" stop-color="#D3B19D" stop-opacity="0"/><stop offset="1" stop-color="#D3B19D"/></radialGradient><linearGradient id="paint19_linear_1_36786" x1="10.348" x2="10.723" y1="18.768" y2="18.088" gradientUnits="userSpaceOnUse"><stop stop-color="#DEABA7"/><stop offset="1" stop-color="#DEABA7" stop-opacity="0"/></linearGradient><radialGradient id="paint20_radial_1_36786" cx="0" cy="0" r="1" gradientTransform="translate(15.2459 14.209) rotate(90) scale(1.5 2.38592)" gradientUnits="userSpaceOnUse"><stop offset=".802" stop-color="#865B4F"/><stop offset="1" stop-color="#694B43"/><stop offset="1" stop-color="#704D49"/></radialGradient><radialGradient id="paint21_radial_1_36786" cx="0" cy="0" r="1" gradientTransform="translate(8.51837 14.209) rotate(90) scale(1.5 2.38592)" gradientUnits="userSpaceOnUse"><stop offset=".802" stop-color="#865B4F"/><stop offset="1" stop-color="#694B43"/><stop offset="1" stop-color="#704D49"/></radialGradient><linearGradient id="paint22_linear_1_36786" x1="7.251" x2="9.328" y1="11.514" y2="11.121" gradientUnits="userSpaceOnUse"><stop stop-color="#343434"/><stop offset="1" stop-color="#343434" stop-opacity="0"/></linearGradient><linearGradient id="paint23_linear_1_36786" x1="13.875" x2="23.297" y1="10.06" y2="4.764" gradientUnits="userSpaceOnUse"><stop stop-color="#FFE5CA"/><stop offset="1" stop-color="#FFE5CA" stop-opacity="0"/></linearGradient><linearGradient id="paint24_linear_1_36786" x1="12.342" x2="11.563" y1="2.275" y2="7.896" gradientUnits="userSpaceOnUse"><stop offset=".568" stop-color="#C49275"/><stop offset="1" stop-color="#D59471"/><stop offset="1" stop-color="#E3AB91"/></linearGradient><radialGradient id="paint25_radial_1_36786" cx="0" cy="0" r="1" gradientTransform="translate(9.02332 4.81055) rotate(-11.0394) scale(5.97686 4.98604)" gradientUnits="userSpaceOnUse"><stop offset=".733" stop-color="#3D3D3E" stop-opacity="0"/><stop offset="1" stop-color="#3D3D3E"/></radialGradient><radialGradient id="paint26_radial_1_36786" cx="0" cy="0" r="1" gradientTransform="translate(9.02332 5.20898) rotate(-23.6903) scale(5.01657 4.84374)" gradientUnits="userSpaceOnUse"><stop offset=".714" stop-color="#443934"/><stop offset=".969" stop-color="#443934" stop-opacity="0"/></radialGradient><radialGradient id="paint27_radial_1_36786" cx="0" cy="0" r="1" gradientTransform="translate(12.5705 6.174) rotate(-122.764) scale(5.04136 5.19757)" gradientUnits="userSpaceOnUse"><stop offset=".825" stop-color="#453B36" stop-opacity="0"/><stop offset="1" stop-color="#453B36"/></radialGradient><radialGradient id="paint28_radial_1_36786" cx="0" cy="0" r="1" gradientTransform="translate(11.4843 3.7793) rotate(57.8628) scale(4.31785 4.14722)" gradientUnits="userSpaceOnUse"><stop offset=".862" stop-color="#251D20" stop-opacity="0"/><stop offset=".966" stop-color="#251D20"/></radialGradient><radialGradient id="paint29_radial_1_36786" cx="0" cy="0" r="1" gradientTransform="translate(11.5196 16.2715) rotate(1.40863) scale(1.43012 0.739477)" gradientUnits="userSpaceOnUse"><stop offset=".541" stop-color="#E6AFA3"/><stop offset="1" stop-color="#FFD4BF"/></radialGradient><radialGradient id="paint30_radial_1_36786" cx="0" cy="0" r="1" gradientTransform="translate(12.0996 15.8145) rotate(90) scale(1.06641 1.346)" gradientUnits="userSpaceOnUse"><stop offset=".559" stop-color="#E0A39C" stop-opacity="0"/><stop offset="1" stop-color="#E0A39C"/></radialGradient><radialGradient id="paint31_radial_1_36786" cx="0" cy="0" r="1" gradientTransform="matrix(-0.428777 -0.552541 0.75424 -0.598668 14.8239 14.3645)" gradientUnits="userSpaceOnUse"><stop offset=".766" stop-color="#FFE6E2" stop-opacity="0"/><stop offset=".966" stop-color="#FFE6E2"/></radialGradient><linearGradient id="paint32_linear_1_36786" x1="16.684" x2="16.104" y1="14.309" y2="14.666" gradientUnits="userSpaceOnUse"><stop stop-color="#B4948D"/><stop offset="1" stop-color="#B4948D" stop-opacity="0"/></linearGradient><linearGradient id="paint33_linear_1_36786" x1="9.893" x2="9.313" y1="14.309" y2="14.666" gradientUnits="userSpaceOnUse"><stop stop-color="#B4948D"/><stop offset="1" stop-color="#B4948D" stop-opacity="0"/></linearGradient><radialGradient id="paint34_radial_1_36786" cx="0" cy="0" r="1" gradientTransform="matrix(-0.0143018 -0.913435 1.09769 -0.0363503 7.98885 14.6142)" gradientUnits="userSpaceOnUse"><stop offset=".766" stop-color="#FFE6E2" stop-opacity="0"/><stop offset=".966" stop-color="#FFE6E2"/></radialGradient><linearGradient id="paint35_linear_1_36786" x1="16.535" x2="14.52" y1="11.443" y2="11.011" gradientUnits="userSpaceOnUse"><stop stop-color="#343434"/><stop offset="1" stop-color="#343434" stop-opacity="0"/></linearGradient><radialGradient id="paint36_radial_1_36786" cx="0" cy="0" r="1" gradientTransform="translate(15.5785 9.21193) rotate(-46.2124) scale(9.48622)" gradientUnits="userSpaceOnUse"><stop offset=".598" stop-color="#DDDADF"/><stop offset="1" stop-color="#BDBABF"/></radialGradient><radialGradient id="paint37_radial_1_36786" cx="0" cy="0" r="1" gradientTransform="translate(17.4861 6.41122) rotate(71.8466) scale(1.37648 1.57535)" gradientUnits="userSpaceOnUse"><stop offset=".219" stop-color="#C3C0C7"/><stop offset=".404" stop-color="#C3C0C7" stop-opacity=".731"/><stop offset=".802" stop-color="#C3C0C7" stop-opacity=".123"/><stop offset="1" stop-color="#C3C0C7" stop-opacity="0"/></radialGradient><radialGradient id="paint38_radial_1_36786" cx="0" cy="0" r="1" gradientTransform="translate(17.6139 5.16033) rotate(177.101) scale(0.653691 1.66701)" gradientUnits="userSpaceOnUse"><stop stop-color="#C3C0C7"/><stop offset=".275" stop-color="#C3C0C7" stop-opacity=".77"/><stop offset=".493" stop-color="#C3C0C7" stop-opacity=".554"/><stop offset=".702" stop-color="#C3C0C7" stop-opacity=".25"/><stop offset=".836" stop-color="#C3C0C7" stop-opacity=".094"/><stop offset="1" stop-color="#C3C0C7" stop-opacity="0"/></radialGradient><radialGradient id="paint39_radial_1_36786" cx="0" cy="0" r="1" gradientTransform="translate(17.7012 3.85471) rotate(177.957) scale(0.740713 1.68162)" gradientUnits="userSpaceOnUse"><stop stop-color="#C3C0C7"/><stop offset=".481" stop-color="#C3C0C7" stop-opacity=".554"/><stop offset=".704" stop-color="#C3C0C7" stop-opacity=".25"/><stop offset=".836" stop-color="#C3C0C7" stop-opacity=".094"/><stop offset="1" stop-color="#C3C0C7" stop-opacity="0"/></radialGradient><linearGradient id="paint40_linear_1_36786" x1="17.999" x2="17.999" y1="2.653" y2="6.402" gradientUnits="userSpaceOnUse"><stop stop-color="#F83F4C"/><stop offset="1" stop-color="#F74093"/></linearGradient><radialGradient id="paint41_radial_1_36786" cx="0" cy="0" r="1" gradientTransform="translate(17.9991 5.5329) rotate(-63.8004) scale(1.51503 0.498017)" gradientUnits="userSpaceOnUse"><stop offset=".395" stop-color="#911A57"/><stop offset=".859" stop-color="#911A57" stop-opacity=".159"/><stop offset="1" stop-color="#911A57" stop-opacity="0"/></radialGradient><linearGradient id="paint42_linear_1_36786" x1="17.621" x2="18.059" y1="4" y2="4" gradientUnits="userSpaceOnUse"><stop stop-color="#A23A67"/><stop offset=".707" stop-color="#A23A67" stop-opacity=".166"/><stop offset="1" stop-color="#A23A67" stop-opacity="0"/></linearGradient><radialGradient id="paint43_radial_1_36786" cx="0" cy="0" r="1" gradientTransform="translate(18.571 4.24977) rotate(-116.461) scale(1.7474 1.68537)" gradientUnits="userSpaceOnUse"><stop stop-color="#A23A67" stop-opacity="0"/><stop offset=".802" stop-color="#A23A67" stop-opacity="0"/><stop offset=".836" stop-color="#A23A67" stop-opacity=".096"/><stop offset=".895" stop-color="#A23A67" stop-opacity=".286"/><stop offset="1" stop-color="#A23A67"/></radialGradient><linearGradient id="paint44_linear_1_36786" x1="19.295" x2="18.205" y1="3.767" y2="5.654" gradientUnits="userSpaceOnUse"><stop stop-color="#32183D"/><stop offset="1" stop-color="#2C3A65"/></linearGradient><linearGradient id="paint45_linear_1_36786" x1="18.402" x2="18.727" y1="4.563" y2="4.751" gradientUnits="userSpaceOnUse"><stop stop-color="#2E2840"/><stop offset="1" stop-color="#2E2840" stop-opacity="0"/></linearGradient><radialGradient id="paint46_radial_1_36786" cx="0" cy="0" r="1" gradientTransform="translate(19.419 4.00835) rotate(120) scale(2.14885 0.30573)" gradientUnits="userSpaceOnUse"><stop stop-color="#50375F"/><stop offset=".358" stop-color="#50375F" stop-opacity=".753"/><stop offset=".566" stop-color="#50375F" stop-opacity=".515"/><stop offset="1" stop-color="#50375F" stop-opacity="0"/></radialGradient><linearGradient id="paint47_linear_1_36786" x1="19.295" x2="19.16" y1="3.767" y2="4" gradientUnits="userSpaceOnUse"><stop stop-color="#3E1846"/><stop offset="1" stop-color="#3E1846" stop-opacity="0"/></linearGradient><radialGradient id="paint48_radial_1_36786" cx="0" cy="0" r="1" gradientTransform="translate(19.2041 4.0459) rotate(125.99) scale(0.216878 0.333985)" gradientUnits="userSpaceOnUse"><stop stop-color="#50375F"/><stop offset=".463" stop-color="#50375F" stop-opacity=".515"/><stop offset=".796" stop-color="#50375F" stop-opacity=".133"/><stop offset="1" stop-color="#50375F" stop-opacity="0"/></radialGradient><linearGradient id="paint49_linear_1_36786" x1="21.18" x2="13.595" y1="1.53" y2="10.725" gradientUnits="userSpaceOnUse"><stop stop-color="#6D6B70"/><stop offset="1" stop-color="#706C74"/></linearGradient><radialGradient id="paint50_radial_1_36786" cx="0" cy="0" r="1" gradientTransform="translate(18.1386 5.95475) rotate(149.639) scale(5.46113)" gradientUnits="userSpaceOnUse"><stop offset=".915" stop-color="#484150" stop-opacity="0"/><stop offset=".928" stop-color="#484150" stop-opacity=".101"/><stop offset=".939" stop-color="#484150" stop-opacity=".27"/><stop offset=".969" stop-color="#484150" stop-opacity=".77"/><stop offset=".988" stop-color="#484150"/></radialGradient><radialGradient id="paint51_radial_1_36786" cx="0" cy="0" r="1" gradientTransform="translate(17.82 6.13876) rotate(-37.0827) scale(5.44206)" gradientUnits="userSpaceOnUse"><stop stop-color="#888" stop-opacity="0"/><stop offset=".938" stop-color="#888" stop-opacity="0"/><stop offset=".953" stop-color="#888" stop-opacity=".129"/><stop offset=".973" stop-color="#888" stop-opacity=".53"/><stop offset=".989" stop-color="#888" stop-opacity=".823"/><stop offset="1" stop-color="#888"/></radialGradient><radialGradient id="paint52_radial_1_36786" cx="0" cy="0" r="1" gradientTransform="translate(17.8852 6.15256) rotate(149.509) scale(4.3063)" gradientUnits="userSpaceOnUse"><stop stop-color="#888"/><stop offset=".935" stop-color="#888"/><stop offset=".958" stop-color="#888" stop-opacity=".68"/><stop offset=".985" stop-color="#888" stop-opacity=".156"/><stop offset="1" stop-color="#888" stop-opacity="0"/></radialGradient><radialGradient id="paint53_radial_1_36786" cx="0" cy="0" r="1" gradientTransform="translate(18.1223 5.92075) rotate(-42.8395) scale(4.30606 4.3676)" gradientUnits="userSpaceOnUse"><stop offset=".925" stop-color="#484150"/><stop offset=".94" stop-color="#484150" stop-opacity=".881"/><stop offset=".964" stop-color="#484150" stop-opacity=".589"/><stop offset=".99" stop-color="#484150" stop-opacity=".11"/><stop offset="1" stop-color="#484150" stop-opacity="0"/></radialGradient><radialGradient id="paint54_radial_1_36786" cx="0" cy="0" r="1" gradientTransform="translate(18.3756 5.84299) rotate(132.631) scale(1.26696)" gradientUnits="userSpaceOnUse"><stop stop-color="#C9C6CC"/><stop offset=".101" stop-color="#C9C6CC"/><stop offset=".259" stop-color="#C3C0C6"/><stop offset=".371" stop-color="#BAB7BD"/><stop offset=".794" stop-color="#928E95"/></radialGradient><radialGradient id="paint55_radial_1_36786" cx="0" cy="0" r="1" gradientTransform="translate(18.1362 5.91394) rotate(139.867) scale(0.975183)" gradientUnits="userSpaceOnUse"><stop offset=".487" stop-color="#776F7F" stop-opacity="0"/><stop offset=".532" stop-color="#776F7F" stop-opacity=".047"/><stop offset=".576" stop-color="#776F7F" stop-opacity=".12"/><stop offset=".766" stop-color="#776F7F" stop-opacity=".498"/><stop offset="1" stop-color="#776F7F"/></radialGradient></defs></svg>