<svg xmlns="http://www.w3.org/2000/svg" width="24" height="24" fill="none" viewBox="0 0 24 24"><path fill="#121212" d="M14.25 18H19.5V19.125C19.5 19.8212 19.2234 20.4889 18.7311 20.9812C18.2389 21.4734 17.5712 21.75 16.875 21.75C16.1788 21.75 15.5111 21.4734 15.0188 20.9812C14.5266 20.4889 14.25 19.8212 14.25 19.125V18ZM4.49999 16.875C4.49999 17.5712 4.77656 18.2389 5.26884 18.7312C5.76112 19.2234 6.4288 19.5 7.12499 19.5C7.82119 19.5 8.48887 19.2234 8.98115 18.7312C9.47343 18.2389 9.74999 17.5712 9.74999 16.875V15.75H4.49999V16.875ZM7.12499 2.25C4.82624 2.25 2.30062 9.75 4.75687 12.75H9.49312C11.9494 9.75 9.42374 2.25 7.12499 2.25ZM19.2431 15C21.6994 12 19.1737 4.5 16.875 4.5C14.5762 4.5 12.0506 12 14.5069 15H19.2431Z" opacity=".2"/><path fill="#121212" d="M19.5056 17.25H14.25C14.0511 17.25 13.8603 17.329 13.7197 17.4697C13.579 17.6103 13.5 17.8011 13.5 18V19.125C13.5 20.0207 13.8558 20.8798 14.4892 21.5131C15.1226 22.1465 15.9816 22.5023 16.8774 22.5023C17.7731 22.5023 18.6321 22.1465 19.2655 21.5131C19.8989 20.8798 20.2547 20.0207 20.2547 19.125V18C20.2547 17.8012 20.1758 17.6106 20.0354 17.47C19.8949 17.3294 19.7044 17.2502 19.5056 17.25ZM18.7556 19.125C18.7556 19.6223 18.5581 20.0992 18.2065 20.4508C17.8548 20.8025 17.3779 21 16.8806 21C16.3834 21 15.9065 20.8025 15.5548 20.4508C15.2032 20.0992 15.0056 19.6223 15.0056 19.125V18.75H18.7556V19.125ZM9.75002 15H4.50002C4.30111 15 4.11034 15.079 3.96969 15.2197C3.82904 15.3603 3.75002 15.5511 3.75002 15.75V16.875C3.75002 17.7701 4.1056 18.6285 4.73853 19.2615C5.37147 19.8944 6.22991 20.25 7.12502 20.25C8.02013 20.25 8.87857 19.8944 9.51151 19.2615C10.1444 18.6285 10.5 17.7701 10.5 16.875V15.75C10.5 15.5511 10.421 15.3603 10.2803 15.2197C10.1397 15.079 9.94893 15 9.75002 15ZM9.00002 16.875C9.00002 17.3723 8.80248 17.8492 8.45085 18.2008C8.09921 18.5525 7.6223 18.75 7.12502 18.75C6.62774 18.75 6.15083 18.5525 5.79919 18.2008C5.44756 17.8492 5.25002 17.3723 5.25002 16.875V16.5H9.00002V16.875ZM7.12502 1.5C6.03377 1.5 4.97533 2.46656 4.14377 4.21875C2.83783 6.97312 2.40377 11.0625 4.17096 13.2187C4.24142 13.3048 4.33013 13.374 4.43066 13.4215C4.53119 13.469 4.64102 13.4936 4.75221 13.4934H9.49127C9.60246 13.4936 9.71229 13.469 9.81282 13.4215C9.91335 13.374 10.0021 13.3048 10.0725 13.2187C11.8397 11.0625 11.4056 6.97031 10.0997 4.21875C9.26721 2.46656 8.20971 1.5 7.12502 1.5ZM9.10783 12H5.13564C4.06689 10.3031 4.45971 7.05937 5.50033 4.86469C6.10689 3.58312 6.76596 3 7.12502 3C7.48408 3 8.1394 3.58312 8.7469 4.86469C9.78377 7.05937 10.1766 10.3031 9.10783 12ZM14.5088 15.75H19.2478C19.359 15.7502 19.4689 15.7256 19.5694 15.6781C19.6699 15.6306 19.7586 15.5613 19.8291 15.4753C21.5963 13.3191 21.1622 9.22687 19.8563 6.47531C19.0247 4.71656 17.9663 3.75 16.875 3.75C15.7838 3.75 14.7291 4.71656 13.8966 6.46875C12.5906 9.22312 12.1566 13.3125 13.9238 15.4687C13.994 15.5565 14.083 15.6273 14.1843 15.6759C14.2855 15.7246 14.3964 15.7499 14.5088 15.75ZM15.2588 7.11469C15.8644 5.83312 16.5235 5.25 16.875 5.25C17.2266 5.25 17.8885 5.83312 18.496 7.11469C19.5366 9.30937 19.9294 12.5522 18.8606 14.25H14.8922C13.8235 12.5531 14.2163 9.30937 15.2569 7.11469H15.2588Z"/></svg>